<?xml version="1.0" encoding="UTF-8"?>
<svg version="1.1" xmlns="http://www.w3.org/2000/svg" width="500" height="500">
<path d="M0 0 C28.38 0 56.76 0 86 0 C86 5.94 86 11.88 86 18 C64.88 18 43.76 18 22 18 C22 31.86 22 45.72 22 60 C43.12 60 64.24 60 86 60 C86 66.27 86 72.54 86 79 C57.62 79 29.24 79 0 79 C0 52.93 0 26.86 0 0 Z " fill="#F1F1F1" transform="translate(286,108)"/>
<path d="M0 0 C7.59 0 15.18 0 23 0 C24.13932292 3.25520833 25.27864583 6.51041667 26.41796875 9.765625 C27.62957821 13.10391709 28.98133044 16.36937705 30.36328125 19.640625 C33.58689022 27.30999031 36.4047218 35.11797019 39.25 42.93359375 C41.64135019 49.457496 44.1761967 55.88836291 46.87939453 62.2890625 C48.37153516 65.89880749 49.67710929 69.55429367 50.9375 73.25 C54.52141308 83.56060634 58.18187866 93.84536991 62.5 103.875 C64.62084605 108.85762869 66.33206832 113.91622366 68 119.0625 C69.9650848 125.12187829 72.15200214 130.90540771 74.8984375 136.6640625 C79 145.36170213 79 145.36170213 79 150 C71.74 150 64.48 150 57 150 C49.74209626 132.8449548 42.64496787 115.42631014 36.9375 97.6875 C35.71852622 93.9402843 34.32393797 90.4292861 32.625 86.875 C30.33380951 82.02554774 28.64259491 77.09445518 27 72 C25.08478277 66.07073067 22.96412462 60.44358066 20.27734375 54.8125 C15.91370644 45.20449125 12.65323004 35.05628497 9.1887207 25.09765625 C7.35490534 19.87651934 5.30699728 14.77790716 3.078125 9.7109375 C1.8232664 6.55560463 0.93287123 3.2650493 0 0 Z " fill="#EFEFEF" transform="translate(128,108)"/>
<path d="M0 0 C0.91644287 0.00523682 1.83288574 0.01047363 2.77709961 0.01586914 C4.26113281 0.02070312 4.26113281 0.02070312 5.77514648 0.02563477 C6.81606445 0.03401367 7.85698242 0.04239258 8.92944336 0.05102539 C10.49662109 0.05779297 10.49662109 0.05779297 12.09545898 0.06469727 C14.68600996 0.07652627 17.27644895 0.0930085 19.86694336 0.11352539 C16.58728789 11.25540694 12.7828975 22.10553944 8.24584961 32.80102539 C1.94046058 47.9482489 -3.80012981 63.37064694 -9.19555664 78.86352539 C-11.23606421 84.72009849 -13.47035974 90.44223262 -15.91430664 96.14477539 C-17.28959984 99.49484858 -18.497979 102.88354774 -19.69555664 106.30102539 C-24.79171049 120.77217924 -24.79171049 120.77217924 -28.13305664 124.11352539 C-30.77158485 121.47499718 -31.42912969 118.52775554 -32.50805664 115.05102539 C-34.16661825 109.83147102 -35.97333751 104.90566327 -38.53149414 100.04321289 C-40.09213043 95.03701597 -36.79899684 89.42944317 -34.94555664 84.80102539 C-34.30157828 83.16850823 -33.6583616 81.53569042 -33.01586914 79.90258789 C-32.5348877 78.68297363 -32.5348877 78.68297363 -32.04418945 77.4387207 C-28.87312285 69.34621311 -25.89320414 61.17847101 -22.88696289 53.02368164 C-17.100079 37.33609693 -11.21525078 21.68936217 -5.13305664 6.11352539 C-4.78178711 5.20135254 -4.43051758 4.28917969 -4.06860352 3.34936523 C-2.72787104 0.14518256 -2.72787104 0.14518256 0 0 Z " fill="#EFEFEF" transform="translate(246.133056640625,107.886474609375)"/>
<path d="M0 0 C7.26 0 14.52 0 22 0 C22 17.16 22 34.32 22 52 C14.74 52 7.48 52 0 52 C0 34.84 0 17.68 0 0 Z " fill="#EEEEEE" transform="translate(286,206)"/>
<path d="M0 0 C0.68642578 -0.020625 1.37285156 -0.04125 2.08007812 -0.0625 C7.79023293 -0.10571782 12.35363356 1.10017029 17 4.625 C20.61480656 9.57157739 20.41820018 14.36714532 20.1875 20.25 C13.54708878 21.47399452 6.98528303 21.36227753 0.25 21.3125 C-1.49120117 21.30573242 -1.49120117 21.30573242 -3.26757812 21.29882812 C-6.11593934 21.28710647 -8.96419222 21.2706976 -11.8125 21.25 C-11.8125 24.36257569 -11.63888376 26.35765685 -10.8125 29.25 C0.70773612 30.28685091 0.70773612 30.28685091 12.1875 29.25 C12.5175 27.93 12.8475 26.61 13.1875 25.25 C15.4975 25.25 17.8075 25.25 20.1875 25.25 C20.5625 27.4375 20.5625 27.4375 20.1875 30.25 C14.09741573 36.20474906 9.54741674 36.47534386 1.5 36.5625 C0.62666016 36.59150391 -0.24667969 36.62050781 -1.14648438 36.65039062 C-7.19205049 36.70908544 -11.85530242 35.86530966 -16.8125 32.25 C-20.41972416 28.18562268 -20.29953624 23.9957921 -20.25 18.8125 C-20.26998047 18.07451172 -20.28996094 17.33652344 -20.31054688 16.57617188 C-20.30589779 11.34594602 -19.20551018 8.42018011 -15.8125 4.25 C-11.06758204 -0.0500819 -6.18064961 0.04565577 0 0 Z M-11.8125 8.25 C-12.4725 10.56 -13.1325 12.87 -13.8125 15.25 C-4.9025 15.25 4.0075 15.25 13.1875 15.25 C12.08841911 8.48236355 12.08841911 8.48236355 8.96875 6.828125 C5.80542952 6.17058086 2.91968581 5.98489633 -0.3125 6 C-1.4159375 5.99484375 -2.519375 5.9896875 -3.65625 5.984375 C-6.95333367 6.26185234 -9.01896245 6.45977523 -11.8125 8.25 Z " fill="#D5D5D5" transform="translate(375.8125,324.75)"/>
<path d="M0 0 C3.77336041 3.77336041 4.22354275 6.72906456 4.25 11.875 C4.18619084 13.58417396 4.10933663 15.29313365 4 17 C0.13792926 17.90816798 -3.43148656 18.11643845 -7.39453125 18.09765625 C-8.59658203 18.09443359 -9.79863281 18.09121094 -11.03710938 18.08789062 C-12.28298828 18.07951172 -13.52886719 18.07113281 -14.8125 18.0625 C-16.07771484 18.05798828 -17.34292969 18.05347656 -18.64648438 18.04882812 C-21.7643711 18.03706251 -24.88216133 18.02062272 -28 18 C-27.75443959 20.93874379 -27.75443959 20.93874379 -27 24 C-20.28350425 28.00406478 -13.5338453 27.15248625 -6 26 C-5.34 25.67 -4.68 25.34 -4 25 C-3.505 23.515 -3.505 23.515 -3 22 C-0.69 22 1.62 22 4 22 C4.23861338 24.86336051 4.20193689 26.60734493 2.875 29.1875 C-1.83051614 33.73616561 -8.30191955 33.33648585 -14.4375 33.3125 C-15.25798828 33.32861328 -16.07847656 33.34472656 -16.92382812 33.36132812 C-22.37791632 33.36568095 -26.17876592 32.59272512 -31 30 C-36.29548438 24.28645106 -36.3438399 20.19455014 -36.28125 12.56640625 C-35.91837212 7.96491314 -34.92223297 4.59368456 -32 1 C-23.76660223 -5.38088327 -8.80769929 -4.98549016 0 0 Z M-28 6 C-28.33 7.98 -28.66 9.96 -29 12 C-20.42 12 -11.84 12 -3 12 C-3.30143189 6.16751602 -3.30143189 6.16751602 -6.25 4.125 C-13.22603915 2.03218825 -22.12928822 0.96796133 -28 6 Z " fill="#D5D5D5" transform="translate(129,328)"/>
<path d="M0 0 C3.34643332 3.14388604 5.20389353 6.91227022 5.71875 11.46875 C5.734375 13.39453125 5.734375 13.39453125 5.484375 16.39453125 C1.53529286 18.25178876 -1.56330397 18.63104614 -5.91015625 18.58984375 C-7.11220703 18.58339844 -8.31425781 18.57695312 -9.55273438 18.5703125 C-10.79861328 18.55355469 -12.04449219 18.53679687 -13.328125 18.51953125 C-15.22594727 18.50599609 -15.22594727 18.50599609 -17.16210938 18.4921875 C-20.28014064 18.46865519 -23.39778597 18.4357767 -26.515625 18.39453125 C-26.515625 20.70453125 -26.515625 23.01453125 -26.515625 25.39453125 C-18.19609625 27.50742744 -10.99151106 27.58412929 -2.515625 26.39453125 C-2.185625 25.07453125 -1.855625 23.75453125 -1.515625 22.39453125 C0.794375 22.39453125 3.104375 22.39453125 5.484375 22.39453125 C5.07002593 27.22860377 3.10643546 29.28990799 -0.515625 32.39453125 C-4.74391539 33.80396138 -8.77281031 33.6590495 -13.203125 33.70703125 C-14.07646484 33.73603516 -14.94980469 33.76503906 -15.84960938 33.79492188 C-21.61493282 33.85089589 -26.95429609 33.2480031 -31.515625 29.39453125 C-32.22924805 27.25512695 -32.22924805 27.25512695 -32.515625 25.39453125 C-33.175625 25.39453125 -33.835625 25.39453125 -34.515625 25.39453125 C-34.62439482 22.53932344 -34.70328966 19.68832564 -34.765625 16.83203125 C-34.79914063 16.03216797 -34.83265625 15.23230469 -34.8671875 14.40820312 C-34.96305403 8.53637834 -33.97080978 5.18243016 -30.515625 0.39453125 C-22.58534594 -4.33313511 -8.01988137 -5.0212974 0 0 Z M-26.515625 5.39453125 C-26.845625 7.70453125 -27.175625 10.01453125 -27.515625 12.39453125 C-18.935625 12.39453125 -10.355625 12.39453125 -1.515625 12.39453125 C-1.81705689 6.56204727 -1.81705689 6.56204727 -4.765625 4.51953125 C-11.90854083 2.3766565 -19.68590164 2.2022397 -26.515625 5.39453125 Z " fill="#D6D6D6" transform="translate(345.515625,327.60546875)"/>
<path d="M0 0 C14.52 0 29.04 0 44 0 C44 1.65 44 3.3 44 5 C43 6 43 6 39.58178711 6.11352539 C38.06363012 6.11336628 36.54546771 6.10767226 35.02734375 6.09765625 C34.22970108 6.0962413 33.43205841 6.09482635 32.61024475 6.09336853 C30.05262565 6.08775316 27.49509282 6.07519812 24.9375 6.0625 C23.20768355 6.05748698 21.47786574 6.05292373 19.74804688 6.04882812 C15.49866447 6.03777875 11.24934688 6.02050386 7 6 C7 10.29 7 14.58 7 19 C18.55 19 30.1 19 42 19 C42 20.98 42 22.96 42 25 C30.45 25 18.9 25 7 25 C7.03958259 31.5370285 7.03958259 31.5370285 7.09008789 38.07397461 C7.09258545 38.88358643 7.09508301 39.69319824 7.09765625 40.52734375 C7.10289307 41.35999756 7.10812988 42.19265137 7.11352539 43.05053711 C7 45 7 45 6 46 C4.02 46 2.04 46 0 46 C0 30.82 0 15.64 0 0 Z " fill="#D9D9D9" transform="translate(227,315)"/>
<path d="M0 0 C2.64 0 5.28 0 8 0 C9.41785021 2.66604314 10.83430492 5.33281272 12.25 8 C12.64574219 8.74378906 13.04148437 9.48757813 13.44921875 10.25390625 C14.64003286 12.49888367 15.82135554 14.74861259 17 17 C17.39251953 17.73992187 17.78503906 18.47984375 18.18945312 19.2421875 C18.55490234 19.94601562 18.92035156 20.64984375 19.296875 21.375 C19.62526367 22.00148438 19.95365234 22.62796875 20.29199219 23.2734375 C21 25 21 25 21 28 C21.66 28 22.32 28 23 28 C23.67154933 29.28913487 24.33708859 30.58140204 25 31.875 C25.37125 32.59429687 25.7425 33.31359375 26.125 34.0546875 C27 36 27 36 27 38 C27.66 38 28.32 38 29 38 C29.23332031 37.19691406 29.46664062 36.39382813 29.70703125 35.56640625 C31.31857771 31.1212645 33.45192639 27.09576691 35.6875 22.9375 C36.13013184 22.10565186 36.57276367 21.27380371 37.02880859 20.41674805 C38.34749765 17.94176184 39.67271267 15.47038382 41 13 C41.57016846 11.93604004 41.57016846 11.93604004 42.15185547 10.85058594 C44.09276044 7.22910867 46.04158299 3.61204726 48 0 C50.64 0 53.28 0 56 0 C54.64865587 4.54543027 52.80016522 8.30729259 50.375 12.375 C47.30914533 17.58695294 44.52112447 22.87612662 41.875 28.3125 C35.357241 41.642759 35.357241 41.642759 31 46 C27.75 46.5625 27.75 46.5625 24 46 C22.76635742 44.61035156 22.76635742 44.61035156 21.66796875 42.703125 C21.24402832 41.97552979 20.82008789 41.24793457 20.38330078 40.49829102 C19.92681152 39.67385498 19.47032227 38.84941895 19 38 C18.49839355 37.09886475 17.99678711 36.19772949 17.47998047 35.26928711 C15.82197389 32.25185672 14.18912058 29.22195594 12.5625 26.1875 C11.45979033 24.13923951 10.35692651 22.091062 9.25390625 20.04296875 C8.71910645 19.04442871 8.18430664 18.04588867 7.63330078 17.01708984 C6.52330096 14.96665969 5.39598076 12.92553134 4.25341797 10.89306641 C3.42994873 9.42426025 3.42994873 9.42426025 2.58984375 7.92578125 C1.84335571 6.61154175 1.84335571 6.61154175 1.08178711 5.27075195 C0 3 0 3 0 0 Z " fill="#CECECE" transform="translate(41,315)"/>
<path d="M0 0 C0 0.66 0 1.32 0 2 C0.66 2 1.32 2 2 2 C3.90947876 8.41524485 4.27577774 14.20306169 4.1875 20.875 C4.18685547 21.82375 4.18621094 22.7725 4.18554688 23.75 C4.14087865 30.71824269 4.14087865 30.71824269 3 33 C1.00045254 33.04254356 -1.00041636 33.04080783 -3 33 C-4.70045817 31.29954183 -4.18935181 29.08442294 -4.24609375 26.7578125 C-4.27896484 25.69175781 -4.31183594 24.62570312 -4.34570312 23.52734375 C-4.40668765 21.2670237 -4.4640054 19.00660161 -4.51757812 16.74609375 C-4.55173828 15.67746094 -4.58589844 14.60882813 -4.62109375 13.5078125 C-4.6461499 12.52441895 -4.67120605 11.54102539 -4.69702148 10.52783203 C-4.8361425 7.75640137 -4.8361425 7.75640137 -7 5 C-13.4575565 2.84748117 -21.4158066 3.53684591 -28 5 C-29.01614399 8.04843198 -29.18280182 10.31191238 -29.28125 13.5078125 C-29.31863281 14.57644531 -29.35601562 15.64507812 -29.39453125 16.74609375 C-29.46508737 19.00650283 -29.5353982 21.26691957 -29.60546875 23.52734375 C-29.64285156 24.59339844 -29.68023437 25.65945313 -29.71875 26.7578125 C-29.74904297 27.7389502 -29.77933594 28.72008789 -29.81054688 29.73095703 C-30 32 -30 32 -31 33 C-33.5 33.125 -33.5 33.125 -36 33 C-37 32 -37 32 -37.11352539 28.76538086 C-37.11336631 27.33185874 -37.10767407 25.89833088 -37.09765625 24.46484375 C-37.0962413 23.71159317 -37.09482635 22.95834259 -37.09336853 22.18226624 C-37.08775376 19.7673044 -37.07519883 17.35243399 -37.0625 14.9375 C-37.0574869 13.30403779 -37.05292366 11.67057414 -37.04882812 10.03710938 C-37.03777954 6.02470415 -37.02050506 2.01236759 -37 -2 C-34.69 -2 -32.38 -2 -30 -2 C-29.67 -1.34 -29.34 -0.68 -29 0 C-27.989375 -0.495 -26.97875 -0.99 -25.9375 -1.5 C-17.57735662 -4.64066209 -7.71491176 -4.48651791 0 0 Z " fill="#C7C7C7" transform="translate(176,328)"/>
<path d="M0 0 C2.64 0 5.28 0 8 0 C8.28721924 0.60473145 8.57443848 1.20946289 8.87036133 1.83251953 C10.18378294 4.59697694 11.49813361 7.36099167 12.8125 10.125 C13.49022461 11.55199219 13.49022461 11.55199219 14.18164062 13.0078125 C16.41117053 17.69470748 18.65394286 22.3702394 21 27 C25.51209236 18.0765816 29.96636417 9.15325054 34 0 C36.64 0 39.28 0 42 0 C41.40811172 4.90694481 39.22913704 8.62578747 36.875 12.875 C33.14146827 19.74996152 29.72938382 26.70020391 26.5078125 33.828125 C23.77667889 39.57341126 22.16506392 42.75815858 16 45 C12.673314 45.51218036 9.35935503 45.80746779 6 46 C6 43.69 6 41.38 6 39 C9.3 38.34 12.6 37.68 16 37 C16 33.26507063 15.93284402 32.37745841 14.27734375 29.34765625 C13.90665771 28.65945801 13.53597168 27.97125977 13.15405273 27.26220703 C12.55185913 26.17335205 12.55185913 26.17335205 11.9375 25.0625 C11.53281494 24.31339355 11.12812988 23.56428711 10.71118164 22.79248047 C8.77618463 19.216025 6.81063066 15.65664208 4.84375 12.09765625 C4.2146875 10.95167969 3.585625 9.80570312 2.9375 8.625 C2.08478516 7.09746094 2.08478516 7.09746094 1.21484375 5.5390625 C0 3 0 3 0 0 Z " fill="#CECECE" transform="translate(417,326)"/>
<path d="M0 0 C2.31 0 4.62 0 7 0 C7 2.97 7 5.94 7 9 C13.93 9 20.86 9 28 9 C28 10.98 28 12.96 28 15 C21.07 15 14.14 15 7 15 C7.33 22.26 7.66 29.52 8 37 C13.94 36.505 13.94 36.505 20 36 C20.99 33.36 21.98 30.72 23 28 C24.98 28 26.96 28 29 28 C29.17835515 32.54805635 28.99785435 35.8794254 27 40 C26.34 40 25.68 40 25 40 C25 40.66 25 41.32 25 42 C17.8150025 44.34612163 12.06251792 44.56313048 4.796875 42.33984375 C1.90986111 40.18713557 0.87741167 37.37822992 0 34 C-0.32952154 30.67335225 -0.28651247 27.40099722 -0.1875 24.0625 C-0.17396484 23.18787109 -0.16042969 22.31324219 -0.14648438 21.41210938 C-0.11144109 19.27446914 -0.05764541 17.13715016 0 15 C-2.31 15 -4.62 15 -7 15 C-7 13.02 -7 11.04 -7 9 C-4.69 9 -2.38 9 0 9 C0 6.03 0 3.06 0 0 Z " fill="#D1D1D1" transform="translate(190,317)"/>
<path d="M0 0 C2.47763789 1.87496921 3.46357019 2.77874566 4.3125 5.75 C4.4375 9 4.4375 9 4.3125 11.75 C2.3325 11.75 0.3525 11.75 -1.6875 11.75 C-2.0175 10.1 -2.3475 8.45 -2.6875 6.75 C-5.70693979 5.74352007 -7.84017045 5.58435221 -11 5.5625 C-11.92425781 5.54832031 -12.84851563 5.53414063 -13.80078125 5.51953125 C-17.01837099 5.77641595 -19.65077595 6.68850074 -22.6875 7.75 C-22.68226318 8.53238037 -22.67702637 9.31476074 -22.67163086 10.12084961 C-22.65092894 13.64305833 -22.63786162 17.1652543 -22.625 20.6875 C-22.61662109 21.91919922 -22.60824219 23.15089844 -22.59960938 24.41992188 C-22.59638672 25.58974609 -22.59316406 26.75957031 -22.58984375 27.96484375 C-22.58460693 29.04886475 -22.57937012 30.13288574 -22.57397461 31.24975586 C-22.6875 33.75 -22.6875 33.75 -23.6875 34.75 C-25.6675 34.75 -27.6475 34.75 -29.6875 34.75 C-29.6875 23.2 -29.6875 11.65 -29.6875 -0.25 C-26.35416667 -0.25 -23.02083333 -0.25 -19.6875 -0.25 C-13.47226674 -2.32174442 -6.16307806 -2.089179 0 0 Z " fill="#D5D5D5" transform="translate(304.6875,326.25)"/>
<path d="M0 0 C2.31 0 4.62 0 7 0 C7.02527062 6.39037231 7.04283317 12.78073183 7.05493164 19.17114258 C7.05997308 21.34692873 7.06680607 23.52271147 7.07543945 25.69848633 C7.08751338 28.81853067 7.09323005 31.93853038 7.09765625 35.05859375 C7.10281754 36.03775253 7.10797882 37.01691132 7.11329651 38.02574158 C7.11337204 38.92659988 7.11344757 39.82745819 7.11352539 40.75561523 C7.115746 41.55281479 7.11796661 42.35001434 7.12025452 43.17137146 C7 45 7 45 6 46 C4.02 46 2.04 46 0 46 C0 30.82 0 15.64 0 0 Z " fill="#CFCFCF" transform="translate(404,315)"/>
</svg>
